<svg xmlns="http://www.w3.org/2000/svg" viewBox="0 0 1024 1024">
  <defs>
    <linearGradient id="bg" x1="0" y1="0" x2="1" y2="1">
      <stop offset="0%" stop-color="#7AD7FF"/>
      <stop offset="100%" stop-color="#2D6AD4"/>
    </linearGradient>
    <radialGradient id="face" cx="0.45" cy="0.35" r="0.75">
      <stop offset="0%" stop-color="#E0A882"/>
      <stop offset="100%" stop-color="#B67A5C"/>
    </radialGradient>
    <linearGradient id="suit" x1="0" y1="0" x2="0" y2="1">
      <stop offset="0%" stop-color="#3F4D63"/>
      <stop offset="100%" stop-color="#273141"/>
    </linearGradient>
    <linearGradient id="tie" x1="0" y1="0" x2="0" y2="1">
      <stop offset="0%" stop-color="#F3B151"/>
      <stop offset="100%" stop-color="#D27F27"/>
    </linearGradient>
    <filter id="shadow" x="-20%" y="-20%" width="140%" height="140%">
      <feDropShadow dx="0" dy="16" stdDeviation="18" flood-color="#000" flood-opacity="0.2"/>
    </filter>
  </defs>
  <rect width="1024" height="1024" rx="64" fill="url(#bg)"/>
  <circle cx="860" cy="140" r="36" fill="#FFFFFF" opacity="0.25"/>
  <circle cx="200" cy="860" r="52" fill="#FFFFFF" opacity="0.16"/>

  <ellipse cx="520" cy="320" rx="220" ry="200" fill="url(#face)" filter="url(#shadow)"/>
  <ellipse cx="350" cy="190" rx="95" ry="75" fill="#B67A5C"/>
  <ellipse cx="690" cy="190" rx="95" ry="75" fill="#B67A5C"/>
  <ellipse cx="350" cy="200" rx="55" ry="42" fill="#E6A27C"/>
  <ellipse cx="690" cy="200" rx="55" ry="42" fill="#E6A27C"/>

  <path d="M500 120c-26 36-4 68 26 78 12-38 0-68-26-78z" fill="#8C5E45"/>

  <ellipse cx="455" cy="300" rx="26" ry="32" fill="#2A2A2A"/>
  <ellipse cx="595" cy="300" rx="26" ry="32" fill="#2A2A2A"/>
  <circle cx="446" cy="292" r="10" fill="#FFFFFF"/>
  <circle cx="586" cy="292" r="10" fill="#FFFFFF"/>

  <ellipse cx="520" cy="375" rx="92" ry="68" fill="#D89474"/>
  <ellipse cx="490" cy="375" rx="18" ry="24" fill="#8B5E45"/>
  <ellipse cx="550" cy="375" rx="18" ry="24" fill="#8B5E45"/>

  <path d="M410 385c-30 18-40 56-20 78 28 0 38-26 50-56" fill="#F5E7D7"/>
  <path d="M630 385c30 18 40 56 20 78-28 0-38-26-50-56" fill="#F5E7D7"/>

  <path d="M300 560c100-80 360-80 460 0v270H300V560z" fill="url(#suit)"/>
  <rect x="430" y="520" width="180" height="290" rx="40" fill="#F3F3F3"/>
  <polygon points="520,540 590,650 520,780 450,650" fill="url(#tie)"/>

  <path d="M250 640c-50 30-60 110-8 130l74 26 20-74-58-20c-10-32-12-50-28-62z" fill="#3A4657"/>
  <path d="M790 640c50 30 60 110 8 130l-74 26-20-74 58-20c10-32 12-50 28-62z" fill="#3A4657"/>

  <rect x="340" y="680" width="320" height="210" rx="24" fill="#D9DEE6" stroke="#AEB7C2" stroke-width="6"/>
  <circle cx="635" cy="870" r="10" fill="#98A3B2"/>

  <!-- Glasses -->
  <rect x="412" y="275" width="86" height="50" rx="20" fill="none" stroke="#1E1F28" stroke-width="8"/>
  <rect x="542" y="275" width="86" height="50" rx="20" fill="none" stroke="#1E1F28" stroke-width="8"/>
  <rect x="498" y="295" width="44" height="10" rx="5" fill="#1E1F28"/>
</svg>
