<svg xmlns="http://www.w3.org/2000/svg" viewBox="0 0 1024 1024">
  <defs>
    <linearGradient id="bg" x1="0" y1="0" x2="1" y2="1">
      <stop offset="0%" stop-color="#5AB7FF"/>
      <stop offset="100%" stop-color="#2A6AD1"/>
    </linearGradient>
    <radialGradient id="face" cx="0.5" cy="0.35" r="0.75">
      <stop offset="0%" stop-color="#E0AA86"/>
      <stop offset="100%" stop-color="#B2785C"/>
    </radialGradient>
    <linearGradient id="suit" x1="0" y1="0" x2="0" y2="1">
      <stop offset="0%" stop-color="#3F4C62"/>
      <stop offset="100%" stop-color="#252F3F"/>
    </linearGradient>
    <linearGradient id="tie" x1="0" y1="0" x2="0" y2="1">
      <stop offset="0%" stop-color="#7DE7D1"/>
      <stop offset="100%" stop-color="#48BFA8"/>
    </linearGradient>
    <filter id="shadow" x="-20%" y="-20%" width="140%" height="140%">
      <feDropShadow dx="0" dy="16" stdDeviation="18" flood-color="#000" flood-opacity="0.2"/>
    </filter>
  </defs>
  <rect width="1024" height="1024" rx="64" fill="url(#bg)"/>
  <circle cx="840" cy="160" r="44" fill="#FFFFFF" opacity="0.22"/>
  <circle cx="190" cy="840" r="56" fill="#FFFFFF" opacity="0.18"/>

  <ellipse cx="520" cy="320" rx="220" ry="200" fill="url(#face)" filter="url(#shadow)"/>
  <ellipse cx="350" cy="195" rx="95" ry="75" fill="#B2785C"/>
  <ellipse cx="690" cy="195" rx="95" ry="75" fill="#B2785C"/>
  <ellipse cx="350" cy="205" rx="55" ry="42" fill="#E4A17C"/>
  <ellipse cx="690" cy="205" rx="55" ry="42" fill="#E4A17C"/>

  <path d="M500 120c-28 36-6 68 26 80 12-40-2-70-26-80z" fill="#8B5E45"/>

  <ellipse cx="455" cy="300" rx="26" ry="32" fill="#2A2A2A"/>
  <ellipse cx="595" cy="300" rx="26" ry="32" fill="#2A2A2A"/>
  <circle cx="446" cy="292" r="10" fill="#FFFFFF"/>
  <circle cx="586" cy="292" r="10" fill="#FFFFFF"/>

  <ellipse cx="520" cy="378" rx="92" ry="68" fill="#D99273"/>
  <ellipse cx="490" cy="378" rx="18" ry="24" fill="#8B5E45"/>
  <ellipse cx="550" cy="378" rx="18" ry="24" fill="#8B5E45"/>

  <path d="M410 388c-30 18-40 56-20 78 28 0 38-26 50-56" fill="#F6E9DA"/>
  <path d="M630 388c30 18 40 56 20 78-28 0-38-26-50-56" fill="#F6E9DA"/>

  <path d="M300 560c100-80 360-80 460 0v270H300V560z" fill="url(#suit)"/>
  <rect x="430" y="520" width="180" height="290" rx="40" fill="#F4F4F4"/>
  <polygon points="520,540 590,650 520,780 450,650" fill="url(#tie)"/>

  <path d="M250 640c-50 30-60 110-8 130l74 26 20-74-58-20c-10-32-12-50-28-62z" fill="#384657"/>
  <path d="M790 640c50 30 60 110 8 130l-74 26-20-74 58-20c10-32 12-50 28-62z" fill="#384657"/>

  <rect x="360" y="700" width="300" height="200" rx="24" fill="#E1E6EE" stroke="#B0B9C6" stroke-width="6"/>
  <circle cx="635" cy="880" r="10" fill="#98A3B2"/>

  <!-- Headset mic -->
  <path d="M640 360c40 10 60 40 40 70" fill="none" stroke="#1E1F28" stroke-width="10" stroke-linecap="round"/>
  <circle cx="680" cy="420" r="10" fill="#1E1F28"/>
</svg>
