<svg xmlns="http://www.w3.org/2000/svg" viewBox="0 0 420 840" width="420" height="840">
  <defs>
    <linearGradient id="frame" x1="0" y1="0" x2="0" y2="1">
      <stop offset="0%" stop-color="#1B1F26"/>
      <stop offset="100%" stop-color="#0E1116"/>
    </linearGradient>
    <linearGradient id="screen" x1="0" y1="0" x2="0" y2="1">
      <stop offset="0%" stop-color="#0F141B"/>
      <stop offset="100%" stop-color="#0B0F15"/>
    </linearGradient>
    <filter id="soft" x="-20%" y="-20%" width="140%" height="140%">
      <feDropShadow dx="0" dy="18" stdDeviation="18" flood-color="#000" flood-opacity="0.35"/>
    </filter>
  </defs>

  <rect x="26" y="20" width="368" height="800" rx="56" fill="url(#frame)" filter="url(#soft)"/>
  <rect x="44" y="44" width="332" height="752" rx="44" fill="url(#screen)"/>

  <!-- notch -->
  <rect x="150" y="44" width="120" height="26" rx="13" fill="#070A10"/>

  <!-- title -->
  <rect x="70" y="120" width="210" height="18" rx="9" fill="#FFFFFF" opacity="0.14"/>
  <rect x="70" y="150" width="160" height="12" rx="6" fill="#FFFFFF" opacity="0.10"/>

  <!-- steps -->
  <rect x="70" y="210" width="280" height="92" rx="24" fill="#FFFFFF" opacity="0.06"/>
  <rect x="94" y="236" width="220" height="14" rx="7" fill="#FFFFFF" opacity="0.12"/>
  <rect x="94" y="262" width="160" height="12" rx="6" fill="#FFFFFF" opacity="0.10"/>
  <rect x="94" y="284" width="120" height="10" rx="5" fill="#FFFFFF" opacity="0.08"/>
  <rect x="310" y="240" width="22" height="22" rx="11" fill="#2FC27A"/>

  <rect x="70" y="326" width="280" height="92" rx="24" fill="#FFFFFF" opacity="0.06"/>
  <rect x="94" y="352" width="200" height="14" rx="7" fill="#FFFFFF" opacity="0.12"/>
  <rect x="94" y="378" width="170" height="12" rx="6" fill="#FFFFFF" opacity="0.10"/>
  <rect x="94" y="400" width="140" height="10" rx="5" fill="#FFFFFF" opacity="0.08"/>
  <rect x="310" y="356" width="22" height="22" rx="11" fill="#2FC27A" opacity="0.55"/>

  <rect x="70" y="442" width="280" height="92" rx="24" fill="#FFFFFF" opacity="0.06"/>
  <rect x="94" y="468" width="210" height="14" rx="7" fill="#FFFFFF" opacity="0.12"/>
  <rect x="94" y="494" width="140" height="12" rx="6" fill="#FFFFFF" opacity="0.10"/>
  <rect x="94" y="516" width="120" height="10" rx="5" fill="#FFFFFF" opacity="0.08"/>
  <rect x="310" y="472" width="22" height="22" rx="11" fill="#2FC27A" opacity="0.35"/>

  <!-- primary button -->
  <rect x="70" y="700" width="280" height="48" rx="24" fill="#2FC27A"/>
  <rect x="140" y="718" width="140" height="12" rx="6" fill="#06130D" opacity="0.35"/>
</svg>
