<svg xmlns="http://www.w3.org/2000/svg" viewBox="0 0 420 840" width="420" height="840">
  <defs>
    <linearGradient id="frame" x1="0" y1="0" x2="0" y2="1">
      <stop offset="0%" stop-color="#1B1F26"/>
      <stop offset="100%" stop-color="#0E1116"/>
    </linearGradient>
    <linearGradient id="screen" x1="0" y1="0" x2="0" y2="1">
      <stop offset="0%" stop-color="#0F141B"/>
      <stop offset="100%" stop-color="#0B0F15"/>
    </linearGradient>
    <filter id="soft" x="-20%" y="-20%" width="140%" height="140%">
      <feDropShadow dx="0" dy="18" stdDeviation="18" flood-color="#000" flood-opacity="0.35"/>
    </filter>
  </defs>

  <rect x="26" y="20" width="368" height="800" rx="56" fill="url(#frame)" filter="url(#soft)"/>
  <rect x="44" y="44" width="332" height="752" rx="44" fill="url(#screen)"/>

  <!-- notch -->
  <rect x="150" y="44" width="120" height="26" rx="13" fill="#070A10"/>

  <!-- header -->
  <rect x="70" y="98" width="160" height="18" rx="9" fill="#FFFFFF" opacity="0.12"/>
  <circle cx="344" cy="107" r="8" fill="#2FC27A"/>

  <!-- bubbles -->
  <rect x="78" y="150" width="240" height="58" rx="22" fill="#FFFFFF" opacity="0.10"/>
  <rect x="118" y="230" width="250" height="74" rx="26" fill="#2FC27A" opacity="0.92"/>
  <rect x="148" y="322" width="220" height="58" rx="22" fill="#2FC27A" opacity="0.92"/>
  <rect x="78" y="402" width="230" height="58" rx="22" fill="#FFFFFF" opacity="0.10"/>
  <rect x="138" y="482" width="230" height="74" rx="26" fill="#2FC27A" opacity="0.92"/>

  <!-- composer -->
  <rect x="70" y="720" width="280" height="44" rx="22" fill="#FFFFFF" opacity="0.10"/>
  <rect x="360" y="720" width="36" height="44" rx="18" fill="#2FC27A"/>
</svg>
