<svg xmlns="http://www.w3.org/2000/svg" viewBox="0 0 420 840" width="420" height="840">
  <defs>
    <linearGradient id="frame" x1="0" y1="0" x2="0" y2="1">
      <stop offset="0%" stop-color="#1B1F26"/>
      <stop offset="100%" stop-color="#0E1116"/>
    </linearGradient>
    <linearGradient id="screen" x1="0" y1="0" x2="0" y2="1">
      <stop offset="0%" stop-color="#0F141B"/>
      <stop offset="100%" stop-color="#0B0F15"/>
    </linearGradient>
    <filter id="soft" x="-20%" y="-20%" width="140%" height="140%">
      <feDropShadow dx="0" dy="18" stdDeviation="18" flood-color="#000" flood-opacity="0.35"/>
    </filter>
  </defs>

  <rect x="26" y="20" width="368" height="800" rx="56" fill="url(#frame)" filter="url(#soft)"/>
  <rect x="44" y="44" width="332" height="752" rx="44" fill="url(#screen)"/>

  <!-- notch -->
  <rect x="150" y="44" width="120" height="26" rx="13" fill="#070A10"/>

  <!-- title -->
  <rect x="70" y="110" width="140" height="18" rx="9" fill="#FFFFFF" opacity="0.14"/>

  <!-- list -->
  <rect x="70" y="160" width="280" height="64" rx="20" fill="#FFFFFF" opacity="0.06"/>
  <rect x="94" y="184" width="170" height="12" rx="6" fill="#FFFFFF" opacity="0.12"/>
  <rect x="306" y="178" width="36" height="24" rx="12" fill="#2FC27A"/>

  <rect x="70" y="236" width="280" height="64" rx="20" fill="#FFFFFF" opacity="0.06"/>
  <rect x="94" y="260" width="200" height="12" rx="6" fill="#FFFFFF" opacity="0.12"/>
  <rect x="306" y="254" width="36" height="24" rx="12" fill="#FFFFFF" opacity="0.12"/>

  <rect x="70" y="312" width="280" height="64" rx="20" fill="#FFFFFF" opacity="0.06"/>
  <rect x="94" y="336" width="150" height="12" rx="6" fill="#FFFFFF" opacity="0.12"/>
  <rect x="306" y="330" width="36" height="24" rx="12" fill="#2FC27A" opacity="0.55"/>

  <rect x="70" y="388" width="280" height="64" rx="20" fill="#FFFFFF" opacity="0.06"/>
  <rect x="94" y="412" width="190" height="12" rx="6" fill="#FFFFFF" opacity="0.12"/>
  <rect x="306" y="406" width="36" height="24" rx="12" fill="#FFFFFF" opacity="0.12"/>

  <!-- divider -->
  <rect x="70" y="484" width="280" height="2" rx="1" fill="#FFFFFF" opacity="0.08"/>

  <!-- button -->
  <rect x="70" y="700" width="280" height="48" rx="24" fill="#2FC27A"/>
  <rect x="152" y="718" width="116" height="12" rx="6" fill="#06130D" opacity="0.35"/>
</svg>
