<svg xmlns="http://www.w3.org/2000/svg" viewBox="0 0 1400 900">
  <defs>
    <linearGradient id="bg" x1="0" y1="0" x2="1" y2="1">
      <stop offset="0%" stop-color="#F9F5EF"/>
      <stop offset="50%" stop-color="#E9F2FF"/>
      <stop offset="100%" stop-color="#F2E8E0"/>
    </linearGradient>
    <filter id="shadow" x="-30%" y="-30%" width="160%" height="160%">
      <feDropShadow dx="0" dy="18" stdDeviation="22" flood-color="#000" flood-opacity="0.12"/>
    </filter>
  </defs>
  <rect width="1400" height="900" fill="url(#bg)"/>
  <circle cx="1120" cy="170" r="90" fill="#7DE7D1" opacity="0.45"/>
  <circle cx="280" cy="700" r="140" fill="#F7C6B8" opacity="0.5"/>

  <!-- Kabanchik with laptop -->
  <g transform="translate(320 320)">
    <circle cx="0" cy="0" r="140" fill="#F3BFA3"/>
    <ellipse cx="-48" cy="-20" rx="26" ry="34" fill="#2A2A2A"/>
    <ellipse cx="48" cy="-20" rx="26" ry="34" fill="#2A2A2A"/>
    <circle cx="-48" cy="-26" r="11" fill="#FFFFFF"/>
    <circle cx="48" cy="-26" r="11" fill="#FFFFFF"/>
    <circle cx="-44" cy="-24" r="6" fill="#FF8A65"/>
    <circle cx="52" cy="-24" r="6" fill="#FF8A65"/>
    <ellipse cx="0" cy="44" rx="44" ry="26" fill="#E19277"/>
    <circle cx="-14" cy="44" r="6" fill="#2A2A2A"/>
    <circle cx="14" cy="44" r="6" fill="#2A2A2A"/>
    <circle cx="-92" cy="-110" r="32" fill="#F3BFA3"/>
    <circle cx="92" cy="-110" r="32" fill="#F3BFA3"/>

    <rect x="-150" y="120" width="300" height="200" rx="28" fill="#2B3340"/>
    <rect x="-110" y="140" width="220" height="170" rx="20" fill="#232A35"/>
    <rect x="-24" y="150" width="48" height="110" rx="12" fill="#F7F1EB"/>
    <polygon points="0,150 52,210 0,240 -52,210" fill="#FF8A65"/>
    <circle cx="0" cy="224" r="8" fill="#1E1F28"/>

    <rect x="-120" y="300" width="240" height="90" rx="16" fill="#EAF0F7" stroke="#C7D1E0"/>
    <rect x="-90" y="330" width="180" height="12" rx="6" fill="#2B3340" opacity="0.3"/>
    <rect x="-90" y="352" width="120" height="12" rx="6" fill="#2B3340" opacity="0.3"/>
  </g>

  <!-- Right side cards -->
  <rect x="760" y="220" width="520" height="160" rx="24" fill="#FFFFFF" filter="url(#shadow)"/>
  <rect x="800" y="260" width="240" height="18" rx="9" fill="#7DE7D1" opacity="0.4"/>
  <rect x="800" y="290" width="320" height="18" rx="9" fill="#2B3340" opacity="0.2"/>
  <rect x="760" y="420" width="520" height="180" rx="24" fill="#FFFFFF" filter="url(#shadow)"/>
  <rect x="800" y="460" width="280" height="18" rx="9" fill="#FF8A65" opacity="0.4"/>
  <rect x="800" y="490" width="320" height="18" rx="9" fill="#2B3340" opacity="0.2"/>
</svg>
