<svg xmlns="http://www.w3.org/2000/svg" viewBox="0 0 1400 900">
  <defs>
    <linearGradient id="bg" x1="0" y1="0" x2="1" y2="1">
      <stop offset="0%" stop-color="#EFF4FF"/>
      <stop offset="50%" stop-color="#F8F2FF"/>
      <stop offset="100%" stop-color="#F5F0E8"/>
    </linearGradient>
    <filter id="shadow" x="-30%" y="-30%" width="160%" height="160%">
      <feDropShadow dx="0" dy="20" stdDeviation="24" flood-color="#000" flood-opacity="0.12"/>
    </filter>
  </defs>
  <rect width="1400" height="900" fill="url(#bg)"/>
  <circle cx="1060" cy="170" r="120" fill="#B6E3FF" opacity="0.55"/>
  <circle cx="300" cy="680" r="140" fill="#F7C6B8" opacity="0.5"/>

  <!-- Floating dashboard -->
  <rect x="720" y="190" width="540" height="420" rx="30" fill="#FFFFFF" filter="url(#shadow)"/>
  <rect x="760" y="230" width="180" height="24" rx="12" fill="#6B78FF" opacity="0.2"/>
  <rect x="760" y="270" width="330" height="40" rx="20" fill="#F2F4FA"/>
  <rect x="760" y="320" width="380" height="56" rx="26" fill="#E8F1FF"/>
  <rect x="960" y="395" width="240" height="50" rx="24" fill="#F2F4FA"/>
  <rect x="760" y="470" width="260" height="18" rx="9" fill="#6B78FF" opacity="0.16"/>
  <rect x="1040" y="470" width="160" height="18" rx="9" fill="#6B78FF" opacity="0.16"/>

  <!-- Kabanchik bust with blazer -->
  <g transform="translate(320 360)">
    <circle cx="0" cy="0" r="150" fill="#F4BFA3"/>
    <ellipse cx="-54" cy="-24" rx="28" ry="36" fill="#2A2A2A"/>
    <ellipse cx="54" cy="-24" rx="28" ry="36" fill="#2A2A2A"/>
    <circle cx="-54" cy="-30" r="11" fill="#FFFFFF"/>
    <circle cx="54" cy="-30" r="11" fill="#FFFFFF"/>
    <circle cx="-50" cy="-28" r="6" fill="#6B78FF"/>
    <circle cx="58" cy="-28" r="6" fill="#6B78FF"/>
    <ellipse cx="0" cy="48" rx="46" ry="28" fill="#E49C7E"/>
    <circle cx="-16" cy="48" r="6" fill="#2A2A2A"/>
    <circle cx="16" cy="48" r="6" fill="#2A2A2A"/>
    <circle cx="-110" cy="-100" r="34" fill="#F4BFA3"/>
    <circle cx="110" cy="-100" r="34" fill="#F4BFA3"/>

    <rect x="-170" y="120" width="340" height="200" rx="28" fill="#354152"/>
    <rect x="-130" y="140" width="260" height="170" rx="20" fill="#2B3442"/>
    <rect x="-24" y="150" width="48" height="110" rx="12" fill="#F7F1EB"/>
    <polygon points="0,150 52,210 0,240 -52,210" fill="#6B78FF"/>
    <circle cx="0" cy="224" r="8" fill="#1E1F28"/>
  </g>
</svg>
