<svg xmlns="http://www.w3.org/2000/svg" viewBox="0 0 1400 900">
  <defs>
    <linearGradient id="bg" x1="0" y1="0" x2="1" y2="1">
      <stop offset="0%" stop-color="#F6F1EB"/>
      <stop offset="55%" stop-color="#FFE9DF"/>
      <stop offset="100%" stop-color="#F3EEE6"/>
    </linearGradient>
    <filter id="soft" x="-30%" y="-30%" width="160%" height="160%">
      <feDropShadow dx="0" dy="18" stdDeviation="22" flood-color="#000" flood-opacity="0.12"/>
    </filter>
  </defs>
  <rect width="1400" height="900" fill="url(#bg)"/>
  <circle cx="1180" cy="140" r="90" fill="#F2C94C" opacity="0.55"/>
  <circle cx="250" cy="720" r="120" fill="#8EDBD0" opacity="0.55"/>

  <!-- Chat card -->
  <rect x="690" y="210" width="560" height="360" rx="32" fill="#FFFFFF" filter="url(#soft)"/>
  <rect x="730" y="250" width="140" height="24" rx="12" fill="#1E6F7B" opacity="0.2"/>
  <rect x="730" y="295" width="300" height="44" rx="20" fill="#F1F3F8"/>
  <rect x="730" y="350" width="340" height="56" rx="24" fill="#E6F4F1"/>
  <rect x="960" y="420" width="240" height="50" rx="24" fill="#F1F3F8"/>
  <rect x="730" y="490" width="260" height="18" rx="9" fill="#1E6F7B" opacity="0.14"/>
  <rect x="1040" y="490" width="170" height="18" rx="9" fill="#1E6F7B" opacity="0.14"/>

  <!-- Kabanchik in suit (anime-ish) -->
  <g transform="translate(260 350)">
    <circle cx="0" cy="0" r="150" fill="#F3C3A2"/>
    <ellipse cx="-52" cy="-20" rx="28" ry="36" fill="#2A2A2A"/>
    <ellipse cx="52" cy="-20" rx="28" ry="36" fill="#2A2A2A"/>
    <circle cx="-52" cy="-26" r="12" fill="#FFFFFF"/>
    <circle cx="52" cy="-26" r="12" fill="#FFFFFF"/>
    <circle cx="-48" cy="-24" r="6" fill="#1E6F7B"/>
    <circle cx="56" cy="-24" r="6" fill="#1E6F7B"/>
    <ellipse cx="0" cy="45" rx="46" ry="28" fill="#E19073"/>
    <circle cx="-16" cy="44" r="6" fill="#2A2A2A"/>
    <circle cx="16" cy="44" r="6" fill="#2A2A2A"/>
    <circle cx="-98" cy="-110" r="34" fill="#F3C3A2"/>
    <circle cx="98" cy="-110" r="34" fill="#F3C3A2"/>

    <!-- Suit -->
    <rect x="-160" y="120" width="320" height="210" rx="28" fill="#2F3B49"/>
    <rect x="-120" y="140" width="240" height="180" rx="20" fill="#232C36"/>
    <rect x="-24" y="150" width="48" height="120" rx="12" fill="#F6F1EB"/>
    <polygon points="0,150 50,210 0,240 -50,210" fill="#E15B4A"/>
    <circle cx="0" cy="220" r="8" fill="#1E1F28"/>
  </g>
</svg>
