<svg xmlns="http://www.w3.org/2000/svg" viewBox="0 0 1400 900">
  <defs>
    <linearGradient id="bg" x1="0" y1="0" x2="1" y2="1">
      <stop offset="0%" stop-color="#F2F6F0"/>
      <stop offset="50%" stop-color="#FFF0E6"/>
      <stop offset="100%" stop-color="#F1EAE2"/>
    </linearGradient>
    <filter id="shadow" x="-30%" y="-30%" width="160%" height="160%">
      <feDropShadow dx="0" dy="16" stdDeviation="22" flood-color="#000" flood-opacity="0.12"/>
    </filter>
  </defs>
  <rect width="1400" height="900" fill="url(#bg)"/>
  <circle cx="240" cy="170" r="90" fill="#9FE3D9" opacity="0.5"/>
  <circle cx="1160" cy="700" r="130" fill="#F2C94C" opacity="0.35"/>

  <!-- Kabanchik full body -->
  <g transform="translate(300 260)">
    <circle cx="0" cy="0" r="140" fill="#F1C1A3"/>
    <ellipse cx="-50" cy="-20" rx="26" ry="34" fill="#2A2A2A"/>
    <ellipse cx="50" cy="-20" rx="26" ry="34" fill="#2A2A2A"/>
    <circle cx="-50" cy="-26" r="11" fill="#FFFFFF"/>
    <circle cx="50" cy="-26" r="11" fill="#FFFFFF"/>
    <circle cx="-46" cy="-24" r="6" fill="#1E6F7B"/>
    <circle cx="54" cy="-24" r="6" fill="#1E6F7B"/>
    <ellipse cx="0" cy="44" rx="44" ry="26" fill="#E1997B"/>
    <circle cx="-14" cy="44" r="6" fill="#2A2A2A"/>
    <circle cx="14" cy="44" r="6" fill="#2A2A2A"/>
    <circle cx="-92" cy="-110" r="32" fill="#F1C1A3"/>
    <circle cx="92" cy="-110" r="32" fill="#F1C1A3"/>

    <rect x="-150" y="120" width="300" height="220" rx="30" fill="#283240"/>
    <rect x="-110" y="140" width="220" height="180" rx="22" fill="#202834"/>
    <rect x="-24" y="150" width="48" height="120" rx="12" fill="#F7F1EB"/>
    <polygon points="0,150 52,212 0,246 -52,212" fill="#F2C94C"/>
    <circle cx="0" cy="230" r="8" fill="#1E1F28"/>

    <rect x="-120" y="330" width="90" height="120" rx="30" fill="#283240"/>
    <rect x="30" y="330" width="90" height="120" rx="30" fill="#283240"/>
    <rect x="-96" y="430" width="60" height="24" rx="12" fill="#1E1F28"/>
    <rect x="36" y="430" width="60" height="24" rx="12" fill="#1E1F28"/>
  </g>

  <!-- Simple dashboard on right -->
  <rect x="720" y="220" width="560" height="360" rx="28" fill="#FFFFFF" filter="url(#shadow)"/>
  <rect x="760" y="260" width="140" height="24" rx="12" fill="#1E6F7B" opacity="0.2"/>
  <rect x="760" y="305" width="320" height="40" rx="20" fill="#F2F4FA"/>
  <rect x="760" y="355" width="360" height="54" rx="24" fill="#E7F3F1"/>
  <rect x="980" y="430" width="240" height="48" rx="24" fill="#F2F4FA"/>
  <rect x="760" y="500" width="250" height="16" rx="8" fill="#1E6F7B" opacity="0.16"/>
  <rect x="1040" y="500" width="150" height="16" rx="8" fill="#1E6F7B" opacity="0.16"/>
</svg>
