<svg xmlns="http://www.w3.org/2000/svg" viewBox="0 0 1400 900">
  <defs>
    <linearGradient id="stripe" x1="0" y1="0" x2="1" y2="0">
      <stop offset="0%" stop-color="#FF7A00"/>
      <stop offset="100%" stop-color="#FFD166"/>
    </linearGradient>
    <filter id="soft" x="-20%" y="-20%" width="140%" height="140%">
      <feDropShadow dx="0" dy="16" stdDeviation="20" flood-color="#000" flood-opacity="0.08"/>
    </filter>
  </defs>
  <rect width="1400" height="900" fill="#FFFFFF"/>
  <rect x="0" y="120" width="1400" height="16" fill="url(#stripe)"/>
  <circle cx="1180" cy="160" r="60" fill="#FFE3C0"/>
  <rect x="640" y="210" width="560" height="360" rx="28" fill="#FFFFFF" stroke="#EAEAEA" filter="url(#soft)"/>
  <rect x="680" y="250" width="150" height="24" rx="12" fill="#FF7A00" opacity="0.2"/>
  <rect x="680" y="295" width="320" height="40" rx="20" fill="#F5F5F5"/>
  <rect x="680" y="345" width="360" height="54" rx="24" fill="#F0F7FF"/>
  <rect x="930" y="420" width="220" height="48" rx="22" fill="#F5F5F5"/>
  <rect x="680" y="490" width="260" height="18" rx="9" fill="#FF7A00" opacity="0.2"/>
  <rect x="980" y="490" width="170" height="18" rx="9" fill="#FF7A00" opacity="0.2"/>
  <rect x="260" y="520" width="300" height="120" rx="24" fill="#FFFFFF" stroke="#EAEAEA"/>
  <rect x="300" y="550" width="220" height="14" rx="7" fill="#111" opacity="0.1"/>
  <rect x="300" y="580" width="180" height="14" rx="7" fill="#111" opacity="0.1"/>
</svg>
