<svg xmlns="http://www.w3.org/2000/svg" viewBox="0 0 1400 900">
  <defs>
    <linearGradient id="bg" x1="0" y1="0" x2="1" y2="1">
      <stop offset="0%" stop-color="#FFF4EB"/>
      <stop offset="50%" stop-color="#FFE5D7"/>
      <stop offset="100%" stop-color="#F7F1E8"/>
    </linearGradient>
    <linearGradient id="bubble" x1="0" y1="0" x2="1" y2="1">
      <stop offset="0%" stop-color="#7DE7D1"/>
      <stop offset="100%" stop-color="#5CC7B5"/>
    </linearGradient>
    <filter id="soft" x="-20%" y="-20%" width="140%" height="140%">
      <feDropShadow dx="0" dy="20" stdDeviation="24" flood-color="#000" flood-opacity="0.12"/>
    </filter>
  </defs>
  <rect width="1400" height="900" fill="url(#bg)"/>
  <circle cx="1120" cy="140" r="90" fill="#F2C94C" opacity="0.7"/>
  <circle cx="300" cy="700" r="110" fill="url(#bubble)" opacity="0.7"/>
  <circle cx="1260" cy="680" r="60" fill="#FFB59E" opacity="0.75"/>
  <rect x="650" y="210" width="560" height="360" rx="36" fill="#FFFFFF" filter="url(#soft)"/>
  <rect x="690" y="250" width="120" height="26" rx="13" fill="#1E6F7B" opacity="0.2"/>
  <rect x="690" y="295" width="300" height="42" rx="20" fill="#F1F3F8"/>
  <rect x="690" y="350" width="340" height="54" rx="24" fill="#E3F4F1"/>
  <rect x="920" y="420" width="220" height="48" rx="22" fill="#F1F3F8"/>
  <rect x="690" y="490" width="260" height="20" rx="10" fill="#1E6F7B" opacity="0.12"/>
  <rect x="980" y="490" width="170" height="20" rx="10" fill="#1E6F7B" opacity="0.12"/>
  <rect x="900" y="600" width="220" height="60" rx="20" fill="#FFFFFF" stroke="#E6E2DA"/>
  <rect x="930" y="622" width="160" height="14" rx="7" fill="#1E6F7B" opacity="0.2"/>
</svg>
