<svg xmlns="http://www.w3.org/2000/svg" viewBox="0 0 1400 900">
  <defs>
    <linearGradient id="bg" x1="0" y1="0" x2="1" y2="1">
      <stop offset="0%" stop-color="#0E0E0E"/>
      <stop offset="100%" stop-color="#1A1A1A"/>
    </linearGradient>
    <filter id="shadow" x="-20%" y="-20%" width="140%" height="140%">
      <feDropShadow dx="0" dy="18" stdDeviation="20" flood-color="#000" flood-opacity="0.6"/>
    </filter>
  </defs>
  <rect width="1400" height="900" fill="url(#bg)"/>
  <rect x="120" y="120" width="480" height="180" rx="18" fill="#00E5A8" transform="rotate(-4 120 120)"/>
  <rect x="200" y="330" width="420" height="130" rx="16" fill="#FF4D5A" transform="rotate(3 200 330)"/>
  <rect x="140" y="520" width="520" height="120" rx="16" fill="#F5F5F5" transform="rotate(-2 140 520)"/>
  <rect x="720" y="160" width="560" height="420" rx="26" fill="#141414" stroke="#00E5A8" stroke-width="3" filter="url(#shadow)"/>
  <rect x="760" y="200" width="160" height="30" rx="12" fill="#F5F5F5"/>
  <rect x="760" y="250" width="340" height="46" rx="20" fill="#1D1D1D" stroke="#FF4D5A" stroke-width="2"/>
  <rect x="760" y="310" width="380" height="60" rx="26" fill="#111" stroke="#00E5A8" stroke-width="2"/>
  <rect x="990" y="390" width="240" height="48" rx="24" fill="#1D1D1D" stroke="#F5F5F5" stroke-width="2"/>
  <rect x="760" y="470" width="250" height="18" rx="9" fill="#00E5A8" opacity="0.7"/>
  <rect x="1020" y="470" width="160" height="18" rx="9" fill="#FF4D5A" opacity="0.7"/>
  <rect x="1020" y="610" width="220" height="70" rx="18" fill="#F5F5F5"/>
  <rect x="1048" y="635" width="160" height="16" rx="8" fill="#0E0E0E" opacity="0.5"/>
</svg>
