<svg xmlns="http://www.w3.org/2000/svg" viewBox="0 0 1400 900">
  <defs>
    <linearGradient id="bg" x1="0" y1="0" x2="1" y2="1">
      <stop offset="0%" stop-color="#F9F2E8"/>
      <stop offset="50%" stop-color="#EFE0CF"/>
      <stop offset="100%" stop-color="#F1E5D8"/>
    </linearGradient>
    <filter id="soft" x="-20%" y="-20%" width="140%" height="140%">
      <feDropShadow dx="0" dy="16" stdDeviation="20" flood-color="#000" flood-opacity="0.12"/>
    </filter>
  </defs>
  <rect width="1400" height="900" fill="url(#bg)"/>
  <circle cx="260" cy="190" r="90" fill="#9CC7F7" opacity="0.4"/>
  <circle cx="1180" cy="680" r="120" fill="#D88A6A" opacity="0.35"/>
  <rect x="640" y="200" width="560" height="380" rx="36" fill="#FFFFFF" filter="url(#soft)"/>
  <rect x="680" y="240" width="140" height="26" rx="13" fill="#9CC7F7" opacity="0.5"/>
  <rect x="680" y="285" width="310" height="42" rx="20" fill="#F4F1EC"/>
  <rect x="680" y="340" width="360" height="54" rx="24" fill="#F1E6DB"/>
  <rect x="910" y="410" width="230" height="48" rx="22" fill="#F4F1EC"/>
  <rect x="680" y="480" width="260" height="18" rx="9" fill="#9CC7F7" opacity="0.35"/>
  <rect x="980" y="480" width="170" height="18" rx="9" fill="#D88A6A" opacity="0.35"/>
  <g transform="translate(260 470)">
    <circle cx="0" cy="0" r="120" fill="#F3C3A2"/>
    <ellipse cx="-40" cy="-20" rx="26" ry="34" fill="#2A2A2A"/>
    <ellipse cx="40" cy="-20" rx="26" ry="34" fill="#2A2A2A"/>
    <circle cx="-40" cy="-24" r="10" fill="#FFFFFF"/>
    <circle cx="40" cy="-24" r="10" fill="#FFFFFF"/>
    <ellipse cx="0" cy="30" rx="38" ry="24" fill="#D88A6A"/>
    <circle cx="-12" cy="28" r="6" fill="#2A2A2A"/>
    <circle cx="12" cy="28" r="6" fill="#2A2A2A"/>
    <circle cx="-72" cy="-86" r="30" fill="#F3C3A2"/>
    <circle cx="72" cy="-86" r="30" fill="#F3C3A2"/>
  </g>
</svg>
